<svg xmlns="http://www.w3.org/2000/svg" width="2400" height="700" viewBox="0 0 2400 700">
      <defs>
        
        <linearGradient id="numGrad" x1="0" y1="160" x2="0" y2="480" gradientUnits="userSpaceOnUse">
          <stop offset="0" stop-color="#FFFFFF"/>
          <stop offset="0.58" stop-color="#F7F8FA"/>
          <stop offset="1" stop-color="#DDE3EC"/>
        </linearGradient>
        <linearGradient id="wordGrad" x1="0" y1="190" x2="0" y2="430" gradientUnits="userSpaceOnUse">
          <stop offset="0" stop-color="#FFFFFF"/>
          <stop offset="1" stop-color="#E3E8F0"/>
        </linearGradient>
        <linearGradient id="redGrad" x1="250" y1="100" x2="800" y2="590" gradientUnits="userSpaceOnUse">
          <stop offset="0" stop-color="#FF2A2E"/>
          <stop offset="1" stop-color="#D40F17"/>
        </linearGradient>
        
        <filter id="softShadow" x="-10%" y="-20%" width="120%" height="140%">
          <feDropShadow dx="0" dy="10" stdDeviation="12" flood-color="#000000" flood-opacity="0.35"/>
        </filter>
      </defs>
      
      <g id="logo">
        <path d="M337.72,535.79 A250.00,250.00 0 1 1 696.51,189.30" fill="none" stroke="url(#redGrad)" stroke-width="28" stroke-linecap="butt"/>
        <path d="M746.48,285.30 A250.00,250.00 0 0 1 721.51,475.00" fill="none" stroke="url(#redGrad)" stroke-width="28" stroke-linecap="butt"/>
        <path d="M288.49,225.00 A250.00,250.00 0 0 1 361.61,145.21" fill="none" stroke="url(#redGrad)" stroke-width="28" stroke-linecap="butt"/>
        <path d="M506.89,453.34 C580.41,453.34 621.66,399.90 636.14,315.19 C650.45,231.83 611.17,183.00 537.48,183.00 C474.50,183.00 427.57,219.90 418.18,274.74 C409.49,325.88 444.43,363.00 499.47,363.00 C526.41,363.00 546.51,354.17 564.07,334.48 L564.48,334.48 C557.58,375.09 537.30,399.90 505.61,399.90 C485.16,399.90 474.50,389.33 474.27,372.84 L405.15,372.84 C402.08,417.68 447.33,453.34 506.89,453.34 Z M520.44,311.64 C498.54,311.64 485.51,296.18 489.16,274.74 C492.75,253.31 511.23,237.84 533.13,237.84 C554.68,237.84 567.72,253.31 564.07,274.74 C560.48,296.18 542.00,311.64 520.44,311.64 Z M803.83,187.22 L737.20,187.22 L664.20,226.59 L653.89,287.06 L719.99,251.34 L720.34,251.34 L686.68,449.12 L759.10,449.12 L803.83,187.22 Z M957.00,187.22 L890.37,187.22 L817.37,226.59 L807.06,287.06 L873.17,251.34 L873.51,251.34 L839.85,449.12 L912.27,449.12 L957.00,187.22 Z" fill="url(#numGrad)"/>
        <line x1="1210" y1="170" x2="1160" y2="535" stroke="url(#redGrad)" stroke-width="10" stroke-linecap="square"/>
        <g id="drug-test"><path d="M1348.10,276.75 C1365.50,276.75 1375.86,265.81 1378.75,248.34 C1381.65,230.93 1372.12,220.00 1355.02,220.00 L1335.41,220.00 L1326.00,276.75 L1348.10,276.75 Z M1339.37,266.89 L1345.50,229.86 L1353.99,229.86 C1365.27,229.86 1368.92,236.42 1366.99,248.34 C1365.00,260.29 1358.53,266.89 1347.06,266.89 L1339.37,266.89 Z" fill="url(#wordGrad)"/>
<path d="M1413.26,276.75 L1425.00,276.75 L1428.27,256.90 L1438.55,256.90 C1438.78,256.90 1438.97,256.90 1439.16,256.90 L1445.94,276.75 L1457.98,276.75 L1450.24,254.70 C1457.10,251.76 1461.82,246.12 1463.09,238.62 C1464.95,227.19 1458.02,220.00 1445.26,220.00 L1422.67,220.00 L1413.26,276.75 Z M1429.83,247.50 L1432.76,229.75 L1443.01,229.75 C1449.22,229.75 1452.49,233.06 1451.62,238.46 C1450.70,243.88 1446.28,247.50 1440.11,247.50 L1429.83,247.50 Z" fill="url(#wordGrad)"/>
<path d="M1518.19,277.66 C1532.05,277.66 1542.26,269.63 1544.31,257.35 L1550.52,220.00 L1539.05,220.00 L1533.16,255.65 C1532.05,262.35 1526.22,267.53 1518.68,267.53 C1511.79,267.53 1508.13,263.07 1509.23,256.40 L1515.25,220.00 L1503.78,220.00 L1497.69,256.60 C1495.68,268.90 1503.75,277.66 1518.19,277.66 Z" fill="url(#wordGrad)"/>
<path d="M1607.68,278.57 C1622.11,278.57 1633.85,269.20 1636.17,255.11 L1637.43,247.50 L1613.54,247.50 L1612.05,256.40 L1624.47,256.40 C1622.99,263.27 1616.52,268.21 1608.52,268.21 C1600.60,268.21 1596.21,263.27 1596.21,254.88 C1596.21,243.27 1603.07,230.36 1615.87,230.36 C1622.50,230.36 1626.23,234.13 1626.34,239.91 L1638.26,239.91 C1638.79,227.80 1628.97,220.00 1616.02,220.00 C1597.25,220.00 1584.52,236.42 1584.52,255.00 C1584.52,269.32 1593.40,278.57 1607.68,278.57 Z" fill="url(#wordGrad)"/>
<path d="M1734.36,230.05 L1751.62,230.05 L1743.88,276.75 L1755.61,276.75 L1763.30,230.05 L1780.52,230.05 L1782.19,220.00 L1736.08,220.00 L1734.36,230.05 Z" fill="url(#wordGrad)"/>
<path d="M1816.19,276.75 L1856.91,276.75 L1858.55,266.69 L1829.56,266.69 L1831.84,252.98 L1858.66,252.98 L1860.30,243.19 L1833.49,243.19 L1835.62,230.05 L1864.64,230.05 L1866.32,220.00 L1825.60,220.00 L1816.19,276.75 Z" fill="url(#wordGrad)"/>
<path d="M1920.98,278.57 C1934.66,278.57 1943.94,272.21 1945.70,261.62 C1947.15,252.71 1942.38,247.50 1930.70,244.90 L1925.44,243.73 C1918.74,242.21 1916.52,240.29 1917.10,236.87 C1917.78,232.64 1922.47,229.63 1928.33,229.63 C1934.43,229.63 1937.70,232.83 1937.24,238.32 L1948.17,238.32 C1949.73,226.89 1942.31,220.00 1929.10,220.00 C1916.49,220.00 1907.08,226.54 1905.44,236.53 C1904.03,244.98 1908.83,250.43 1919.69,252.87 L1925.44,254.20 C1932.40,255.76 1934.73,257.89 1934.12,261.47 C1933.40,265.97 1928.49,268.93 1921.90,268.93 C1914.69,268.93 1911.00,265.28 1911.88,259.04 L1900.64,259.04 C1898.63,271.22 1906.16,278.57 1920.98,278.57 Z" fill="url(#wordGrad)"/>
<path d="M1982.38,230.05 L1999.64,230.05 L1991.90,276.75 L2003.63,276.75 L2011.32,230.05 L2028.55,230.05 L2030.21,220.00 L1984.10,220.00 L1982.38,230.05 Z" fill="url(#wordGrad)"/></g>
        <rect x="1326" y="358" width="48" height="9" rx="2" fill="url(#redGrad)"/>
        <g id="network"><path d="M1410.00,391.29 L1419.80,391.29 L1424.39,363.49 C1424.84,361.04 1425.58,356.15 1426.40,349.83 C1428.85,355.93 1431.08,361.01 1432.27,363.53 L1445.29,391.29 L1455.53,391.29 L1464.70,336.00 L1454.86,336.00 L1449.85,366.13 C1449.52,368.36 1448.81,373.07 1448.26,377.27 C1446.66,373.25 1444.88,368.95 1443.88,366.84 L1429.44,336.00 L1419.17,336.00 L1410.00,391.29 Z" fill="url(#wordGrad)"/>
<path d="M1499.70,391.29 L1538.10,391.29 L1539.51,382.79 L1510.89,382.79 L1513.46,367.39 L1539.92,367.39 L1541.29,359.04 L1514.84,359.04 L1517.25,344.49 L1545.85,344.49 L1547.27,336.00 L1508.86,336.00 L1499.70,391.29 Z" fill="url(#wordGrad)"/>
<path d="M1582.27,344.49 L1599.49,344.49 L1591.73,391.29 L1601.56,391.29 L1609.32,344.49 L1626.47,344.49 L1627.88,336.00 L1583.68,336.00 L1582.27,344.49 Z" fill="url(#wordGrad)"/>
<path d="M1668.63,391.29 L1679.75,391.29 L1693.49,359.30 C1694.79,356.26 1696.05,352.96 1697.42,349.28 C1697.61,352.96 1697.79,356.26 1698.09,359.30 L1701.25,391.29 L1712.34,391.29 L1736.46,336.00 L1725.85,336.00 L1713.60,365.79 C1711.71,370.58 1709.89,375.37 1708.15,380.12 C1707.92,375.37 1707.66,370.58 1707.26,365.79 L1704.66,336.00 L1694.30,336.00 L1681.76,365.79 C1679.75,370.62 1677.90,375.45 1676.08,380.31 C1675.94,375.45 1675.75,370.62 1675.42,365.79 L1673.04,336.00 L1662.88,336.00 L1668.63,391.29 Z" fill="url(#wordGrad)"/>
<path d="M1793.43,393.07 C1811.39,393.07 1823.78,376.85 1823.78,358.93 C1823.78,344.87 1815.03,336.00 1801.86,336.00 C1783.66,336.00 1771.46,352.44 1771.46,370.18 C1771.46,384.17 1780.22,393.07 1793.43,393.07 Z M1793.84,384.27 C1786.30,384.27 1781.22,379.31 1781.22,370.11 C1781.22,357.81 1788.83,344.79 1801.41,344.79 C1808.93,344.79 1814.03,349.76 1814.03,359.00 C1814.03,371.29 1806.45,384.27 1793.84,384.27 Z" fill="url(#wordGrad)"/>
<path d="M1858.78,391.29 L1868.58,391.29 L1871.91,371.17 L1883.04,371.17 C1883.34,371.17 1883.60,371.17 1883.89,371.17 L1890.95,391.29 L1901.11,391.29 L1893.22,369.39 C1900.22,366.72 1905.09,361.20 1906.35,353.66 C1908.13,342.83 1901.44,336.00 1889.32,336.00 L1867.95,336.00 L1858.78,391.29 Z M1873.24,363.09 L1876.37,344.31 L1887.58,344.31 C1894.14,344.31 1897.63,347.72 1896.69,353.48 C1895.73,359.23 1891.05,363.09 1884.49,363.09 L1873.24,363.09 Z" fill="url(#wordGrad)"/>
<path d="M1941.63,391.29 L1951.43,391.29 L1954.14,375.10 L1963.52,366.13 L1976.44,391.29 L1987.23,391.29 L1970.80,359.93 L1996.03,336.00 L1983.64,336.00 L1966.16,352.66 C1962.82,355.89 1959.52,359.07 1956.25,362.30 L1957.84,352.59 L1960.60,336.00 L1950.80,336.00 L1941.63,391.29 Z" fill="url(#wordGrad)"/></g>
      </g>
    </svg>